<?xml version="1.0" ?><!DOCTYPE svg  PUBLIC '-//W3C//DTD SVG 1.1//EN'  'http://www.w3.org/Graphics/SVG/1.1/DTD/svg11.dtd'><svg height="100%" style="fill-rule:evenodd;clip-rule:evenodd;stroke-linejoin:round;stroke-miterlimit:2;" version="1.1" viewBox="0 0 32 32" width="100%" xml:space="preserve" xmlns="http://www.w3.org/2000/svg" xmlns:serif="http://www.serif.com/" xmlns:xlink="http://www.w3.org/1999/xlink"><path d="M27.75,16l0.5,-0c-0,-0.828 -0.672,-1.5 -1.5,-1.5c-0.392,0 -0.75,0 -0.75,0c-0.276,0 -0.5,0.224 -0.5,0.5l-0,2c0,0.276 0.224,0.5 0.5,0.5l0.75,0c0.828,-0 1.5,-0.672 1.5,-1.5l-0.5,-0Zm-1.25,-0.5l-0,1l0.25,0c0.276,-0 0.5,-0.224 0.5,-0.5c0,0 0.5,0 0.5,-0l-0.5,-0c-0,-0.276 -0.224,-0.5 -0.5,-0.5l-0.25,0Z"/><path d="M18.819,15.5l-1.819,0c-0.173,0 -0.334,-0.09 -0.425,-0.237c-0.091,-0.148 -0.1,-0.332 -0.022,-0.487l1.75,-3.5c0.084,-0.169 0.258,-0.276 0.447,-0.276c-0,0 5.25,0 5.25,0c0.663,-0 1.299,0.263 1.768,0.732c0.469,0.469 0.732,1.105 0.732,1.768c-0,1.488 -0,3.512 0,5c0,0.663 -0.263,1.299 -0.732,1.768c-0.469,0.469 -1.105,0.732 -1.768,0.732l-9.451,-0c-0.203,-0 -0.386,-0.123 -0.463,-0.311c-0.077,-0.188 -0.032,-0.404 0.113,-0.546l2.446,-2.4l2.174,-2.243Zm-5.612,1l1.793,0c0.173,0 0.334,0.09 0.425,0.237c0.091,0.148 0.1,0.332 0.022,0.487l-1.75,3.5c-0.084,0.169 -0.258,0.276 -0.447,0.276c0,-0 -5.25,-0 -5.25,-0c-0.663,0 -1.299,-0.263 -1.768,-0.732c-0.469,-0.469 -0.732,-1.105 -0.732,-1.768c-0,-1.488 -0,-3.512 -0,-5c-0,-0.663 0.263,-1.299 0.732,-1.768c0.469,-0.469 1.105,-0.732 1.768,-0.732l9.5,0c0.202,-0 0.385,0.122 0.462,0.309c0.077,0.186 0.035,0.402 -0.108,0.545l-4.647,4.646Zm5.852,-4.5l-1.25,2.5l2.191,0c0.201,0 0.382,0.12 0.46,0.305c0.079,0.185 0.039,0.399 -0.101,0.543l-3,3.096l-1.586,1.556l8.227,0c0.398,0 0.779,-0.158 1.061,-0.439c0.281,-0.282 0.439,-0.663 0.439,-1.061c-0,-1.488 -0,-3.512 0,-5c0,-0.398 -0.158,-0.779 -0.439,-1.061c-0.282,-0.281 -0.663,-0.439 -1.061,-0.439l-4.941,0Zm-2.766,0l-8.293,-0c-0.398,-0 -0.779,0.158 -1.061,0.439c-0.281,0.282 -0.439,0.663 -0.439,1.061c-0,1.488 -0,3.512 -0,5c-0,0.398 0.158,0.779 0.439,1.061c0.282,0.281 0.663,0.439 1.061,0.439l4.941,-0l1.25,-2.5l-2.191,0c-0.202,0 -0.385,-0.122 -0.462,-0.309c-0.077,-0.186 -0.035,-0.402 0.108,-0.545l4.647,-4.646Z"/><path d="M14.191,17.5l-2.191,0c-0.202,0 -0.385,-0.122 -0.462,-0.309c-0.077,-0.186 -0.035,-0.402 0.108,-0.545l8,-8c0.174,-0.173 0.447,-0.195 0.646,-0.052c0.199,0.144 0.265,0.41 0.155,0.63l-2.638,5.276l2.191,0c0.201,0 0.382,0.12 0.46,0.305c0.079,0.185 0.039,0.399 -0.101,0.543l-3,3.096l-5.009,4.913c-0.174,0.171 -0.447,0.191 -0.644,0.047c-0.198,-0.144 -0.262,-0.409 -0.153,-0.628l2.638,-5.276Zm3.984,-5.968l-4.968,4.968l1.793,0c0.173,0 0.334,0.09 0.425,0.237c0.091,0.148 0.1,0.332 0.022,0.487l-1.663,3.326l2.861,-2.807l2.174,-2.243l-1.819,0c-0.173,0 -0.334,-0.09 -0.425,-0.237c-0.091,-0.148 -0.1,-0.332 -0.022,-0.487l1.622,-3.244Z"/></svg>