<?xml version="1.0" encoding="iso-8859-1"?>
<!-- Generator: Adobe Illustrator 16.0.0, SVG Export Plug-In . SVG Version: 6.00 Build 0)  -->
<!DOCTYPE svg PUBLIC "-//W3C//DTD SVG 1.1//EN" "http://www.w3.org/Graphics/SVG/1.1/DTD/svg11.dtd">
<svg fill="white" version="1.1" id="Capa_1" xmlns="http://www.w3.org/2000/svg" xmlns:xlink="http://www.w3.org/1999/xlink" x="0px" y="0px"
	 width="99.838px" height="99.838px" viewBox="0 0 99.838 99.838" style="enable-background:new 0 0 99.838 99.838;"
	 xml:space="preserve">
<g>
	<g>
		<path d="M92.186,36.44c-1.834-2.565-3.497-4.892-4.339-8.396l1.752-20.186c0.024-0.294-0.062-0.592-0.239-0.83l-2.926-3.915
			c-0.366-0.491-1.051-0.629-1.588-0.318c-0.531,0.311-0.75,0.97-0.504,1.535l2.238,5.106l-0.749,4.604h-5.657
			c-0.335,0-0.656,0.14-0.89,0.385c-0.232,0.246-0.349,0.582-0.321,0.918l0.403,5.672c0.034,0.501,0.37,0.926,0.849,1.076
			l4.631,1.455c0.194,7.085,2.707,10.597,5.355,14.305c3.378,4.717,7.196,10.061,7.196,24.852c0,6.812-1.283,12.36-3.706,16.036
			c-1.872,2.84-4.421,4.469-7.002,4.469c-3.138,0-6.316-2.556-6.316-7.446c0-9.952-7.29-12.97-11.246-13.881V14.241
			c0-6.718-5.447-12.164-12.165-12.164H19.16c-6.717,0-12.162,5.446-12.162,12.164v60.407c0,1.211,0.228,2.347,0.553,3.449H4.433
			v10.242H71.69V78.097h-3.117c0.325-1.103,0.554-2.245,0.554-3.449V64.347c3.368,0.849,8.816,3.456,8.816,11.416
			c0,5.633,3.764,9.883,8.754,9.883c3.404,0,6.7-2.025,9.027-5.564c2.689-4.072,4.113-10.085,4.113-17.377
			C99.838,47.131,95.772,41.454,92.186,36.44z M85.985,21.354l-4.251-1.334l-0.253-3.543h4.928L85.985,21.354z M61.325,37.351
			c0,6.718-5.448,12.164-12.164,12.164H29.589c0.26-2.618,0.862-5.517,2.134-8.249c0.527-0.168,1.086-0.351,1.662-0.585
			c0.842-0.32,1.745-0.702,2.654-1.136c0.92-0.431,1.821-0.931,2.743-1.461c0.919-0.525,1.792-1.128,2.656-1.752
			c0.842-0.645,1.679-1.29,2.433-2.01c0.75-0.748,1.506-1.438,2.161-2.247c1.347-1.535,2.489-3.183,3.424-4.925
			c0.487-0.819,0.892-1.772,1.287-2.635c0.398-0.854,0.742-1.804,1.079-2.676c0.339-0.849,0.655-1.718,0.935-2.558
			c0.301-0.869,0.568-1.627,0.787-2.25c0.253-0.621,0.41-1.266,0.555-1.645c0.137-0.431,0.201-0.659,0.201-0.659
			s-0.201-0.122-0.585-0.298c-0.362-0.147-0.951-0.458-1.651-0.645c-0.698-0.195-1.643-0.522-2.607-0.609
			c-0.971-0.094-2.07-0.13-3.277-0.074c-1.17,0.098-2.365,0.347-3.639,0.679c-1.276,0.327-2.447,0.873-3.691,1.477
			c-1.22,0.623-2.327,1.392-3.438,2.238c-1.047,0.869-2.043,1.833-2.955,2.856c-0.847,1.049-1.696,2.135-2.344,3.287
			c-0.669,1.146-1.248,2.327-1.663,3.537c-0.898,2.397-1.252,4.859-1.29,7.05c0.003,1.112,0.07,2.142,0.21,3.095
			c0.118,0.939,0.354,1.812,0.536,2.512c0.077,0.337,0.179,0.655,0.28,0.933c0.178-0.375,0.372-0.775,0.589-1.209
			c1.083-2.145,2.652-4.934,4.497-7.541c0.917-1.311,1.92-2.551,2.9-3.675c0.518-0.541,1.023-1.063,1.497-1.552
			c0.508-0.46,0.991-0.891,1.432-1.287c0.478-0.361,0.912-0.688,1.3-0.979c0.372-0.308,0.762-0.49,1.056-0.676
			c0.592-0.351,0.932-0.549,0.932-0.549s-0.323,0.228-0.888,0.623c-0.275,0.21-0.643,0.414-0.99,0.75
			c-0.358,0.316-0.758,0.674-1.203,1.062c-0.402,0.431-0.844,0.894-1.307,1.384c-0.426,0.515-0.876,1.066-1.338,1.632
			c-0.876,1.177-1.755,2.468-2.555,3.824c-1.598,2.685-2.916,5.529-3.798,7.691c-0.137,0.334-0.264,0.645-0.375,0.943
			c-1.21,2.799-1.785,5.701-2.026,8.319h-1.85c-6.718,0-12.164-5.446-12.164-12.164V19.928c0-6.718,5.446-12.164,12.164-12.164
			h23.106c6.72,0,12.164,5.446,12.164,12.164v17.422H61.325z"/>
		<path d="M74.698,89.649H1.216C0.542,89.649,0,90.19,0,90.868v5.678c0,0.667,0.542,1.215,1.216,1.215h73.489
			c0.668,0,1.215-0.541,1.215-1.215v-5.678C75.917,90.19,75.373,89.649,74.698,89.649z M73.483,95.323H2.431v-3.244h71.052V95.323z"
			/>
	</g>
</g>
<g>
</g>
<g>
</g>
<g>
</g>
<g>
</g>
<g>
</g>
<g>
</g>
<g>
</g>
<g>
</g>
<g>
</g>
<g>
</g>
<g>
</g>
<g>
</g>
<g>
</g>
<g>
</g>
<g>
</g>
</svg>
